<svg id="visual" viewBox="0 0 900 400" width="900" height="400" xmlns="http://www.w3.org/2000/svg" xmlns:xlink="http://www.w3.org/1999/xlink" version="1.1"><rect x="0" y="0" width="900" height="400" fill="#ffffff"></rect><path d="M0 14L8.3 14.8C16.7 15.7 33.3 17.3 50 15.8C66.7 14.3 83.3 9.7 100 10.5C116.7 11.3 133.3 17.7 150 22.8C166.7 28 183.3 32 200 32.8C216.7 33.7 233.3 31.3 250 31.7C266.7 32 283.3 35 300 33.5C316.7 32 333.3 26 350 23.5C366.7 21 383.3 22 400 24.7C416.7 27.3 433.3 31.7 450 33C466.7 34.3 483.3 32.7 500 30.2C516.7 27.7 533.3 24.3 550 22.7C566.7 21 583.3 21 600 22C616.7 23 633.3 25 650 24C666.7 23 683.3 19 700 14.5C716.7 10 733.3 5 750 2.7C766.7 0.3 783.3 0.7 800 2.8C816.7 5 833.3 9 850 9.7C866.7 10.3 883.3 7.7 891.7 6.3L900 5L900 0L891.7 0C883.3 0 866.7 0 850 0C833.3 0 816.7 0 800 0C783.3 0 766.7 0 750 0C733.3 0 716.7 0 700 0C683.3 0 666.7 0 650 0C633.3 0 616.7 0 600 0C583.3 0 566.7 0 550 0C533.3 0 516.7 0 500 0C483.3 0 466.7 0 450 0C433.3 0 416.7 0 400 0C383.3 0 366.7 0 350 0C333.3 0 316.7 0 300 0C283.3 0 266.7 0 250 0C233.3 0 216.7 0 200 0C183.3 0 166.7 0 150 0C133.3 0 116.7 0 100 0C83.3 0 66.7 0 50 0C33.3 0 16.7 0 8.3 0L0 0Z" fill="#000000" stroke-linecap="round" stroke-linejoin="miter"></path></svg>