<svg id="visual" viewBox="0 0 900 600" width="900" height="600" xmlns="http://www.w3.org/2000/svg" xmlns:xlink="http://www.w3.org/1999/xlink" version="1.1"><rect x="0" y="0" width="900" height="600" fill="#ffffff"></rect><path d="M0 29L18.8 27.7C37.7 26.3 75.3 23.7 112.8 25.2C150.3 26.7 187.7 32.3 225.2 35.2C262.7 38 300.3 38 337.8 36.3C375.3 34.7 412.7 31.3 450.2 28C487.7 24.7 525.3 21.3 562.8 21.7C600.3 22 637.7 26 675.2 29.5C712.7 33 750.3 36 787.8 35.7C825.3 35.3 862.7 31.7 881.3 29.8L900 28L900 0L881.3 0C862.7 0 825.3 0 787.8 0C750.3 0 712.7 0 675.2 0C637.7 0 600.3 0 562.8 0C525.3 0 487.7 0 450.2 0C412.7 0 375.3 0 337.8 0C300.3 0 262.7 0 225.2 0C187.7 0 150.3 0 112.8 0C75.3 0 37.7 0 18.8 0L0 0Z" fill="#000000" stroke-linecap="round" stroke-linejoin="miter"></path></svg>