<svg xmlns="http://www.w3.org/2000/svg" xmlns:xlink="http://www.w3.org/1999/xlink" width="800" zoomAndPan="magnify" viewBox="0 0 600 599.999999" height="800" preserveAspectRatio="xMidYMid meet" version="1.0"><defs><clipPath id="5776abad8e"><path d="M 13 2 L 599.292969 2 L 599.292969 368 L 13 368 Z M 13 2 " clip-rule="nonzero"/></clipPath></defs><g clip-path="url(#5776abad8e)"><path fill="#000000" d="M 52.335938 330.519531 C 49.007812 328.769531 45.238281 327.117188 41.832031 324.90625 C 36.703125 321.582031 32.863281 317.046875 31.585938 310.882812 C 30.382812 305.082031 32.058594 299.652344 34.4375 294.433594 C 37.925781 286.789062 43.449219 280.75 49.738281 275.355469 C 53.601562 272.042969 57.546875 268.828125 61.382812 265.488281 C 61.792969 265.128906 61.960938 264.160156 61.832031 263.5625 C 59.621094 253.335938 57.210938 243.148438 55.144531 232.894531 C 53.816406 226.308594 53.140625 219.59375 51.839844 213 C 51.332031 210.4375 50.296875 207.78125 48.820312 205.636719 C 40.570312 193.640625 32.054688 181.824219 23.757812 169.859375 C 20.667969 165.40625 17.5625 160.894531 15.109375 156.078125 C 12.140625 150.25 14.617188 145.148438 21.054688 143.894531 C 25.734375 142.988281 30.628906 142.792969 35.40625 142.910156 C 41.335938 143.054688 47.25 143.84375 53.167969 144.378906 C 54.648438 144.515625 56.164062 144.582031 57.578125 144.972656 C 59.757812 145.574219 61.011719 144.878906 62.1875 142.960938 C 68.324219 132.933594 76.105469 124.246094 84.355469 115.921875 C 91.53125 108.679688 98.488281 101.21875 105.570312 93.875 C 113.605469 85.546875 123.367188 80.089844 134.316406 76.582031 C 139.207031 75.015625 144.046875 73.28125 148.636719 71.714844 C 149.351562 63.40625 150.046875 55.21875 150.761719 47.035156 C 151.421875 39.488281 152.230469 31.945312 152.730469 24.386719 C 153.066406 19.363281 152.996094 14.3125 153.058594 9.273438 C 153.136719 2.96875 158.078125 0 163.277344 3.578125 C 168.085938 6.886719 172.601562 10.691406 176.90625 14.644531 C 182.753906 20.007812 188.480469 25.53125 193.894531 31.328125 C 200.597656 38.507812 206.980469 45.996094 213.40625 53.433594 C 218.675781 59.53125 223.59375 65.945312 229.046875 71.867188 C 237.976562 81.5625 247.023438 91.164062 256.390625 100.429688 C 261.914062 105.890625 268.09375 110.691406 274.089844 115.652344 C 275.671875 116.960938 277.558594 118.089844 279.492188 118.742188 C 289.796875 122.222656 299.726562 126.429688 308.515625 132.972656 C 316.617188 139.003906 320.519531 147.222656 321.726562 157.171875 C 322.875 166.628906 320.894531 175.234375 315.929688 183.140625 C 313.394531 187.183594 310.195312 190.808594 307.195312 194.753906 C 308.820312 194.988281 310.640625 195.457031 312.464844 195.476562 C 323.589844 195.613281 334.714844 195.691406 345.839844 195.707031 C 355.6875 195.722656 365.539062 195.511719 375.386719 195.640625 C 382.109375 195.726562 388.832031 196.167969 395.546875 196.550781 C 406.085938 197.152344 416.609375 197.871094 427.148438 198.480469 C 433.371094 198.839844 439.632812 198.789062 445.820312 199.441406 C 454.820312 200.390625 463.796875 201.648438 472.734375 203.082031 C 479.273438 204.132812 485.734375 205.683594 491.902344 206.945312 C 493.425781 203.386719 494.800781 199.851562 496.421875 196.429688 C 499.460938 190.027344 500.429688 183.136719 500.851562 176.234375 C 501.496094 165.6875 501.667969 155.109375 501.917969 144.542969 C 502.152344 134.472656 502.011719 124.386719 502.4375 114.320312 C 502.964844 101.871094 503.152344 89.335938 506.097656 77.148438 C 507.539062 71.199219 509.488281 65.296875 511.90625 59.667969 C 517.957031 45.566406 532.414062 45.097656 542.132812 49.546875 C 549.53125 52.9375 554.738281 58.652344 559.449219 65.097656 C 566.914062 75.308594 569.84375 86.949219 570.882812 99.257812 C 571.363281 104.980469 571.984375 110.703125 572.097656 116.433594 C 572.335938 128.621094 570.332031 140.566406 567.597656 152.398438 C 564.738281 164.769531 560.464844 176.695312 555.785156 188.457031 C 552.691406 196.226562 547.929688 203.148438 542.363281 209.285156 C 536.148438 216.128906 529.203125 222.3125 522.324219 229.03125 C 523.46875 230.949219 525.054688 233.414062 526.445312 235.976562 C 529.375 241.390625 531.886719 247.058594 535.164062 252.25 C 538.742188 257.921875 543.082031 263.105469 546.914062 268.621094 C 552.445312 276.582031 557.546875 284.855469 563.328125 292.628906 C 570.371094 302.097656 578.050781 311.015625 587.574219 318.242188 C 590.996094 320.835938 593.660156 324.480469 596.441406 327.839844 C 597.375 328.964844 597.886719 330.644531 598.089844 332.140625 C 598.550781 335.5625 598.703125 339.03125 598.980469 342.480469 C 599.035156 343.179688 599.210938 343.894531 599.128906 344.582031 C 598.953125 346.0625 599.144531 347.949219 598.316406 348.9375 C 592.832031 355.464844 587.25 362.058594 578.9375 365.078125 C 575.074219 366.484375 570.90625 367.582031 566.828125 367.761719 C 556.0625 368.238281 545.355469 367.300781 534.699219 365.460938 C 529.421875 364.550781 524.007812 364.410156 518.644531 364.066406 C 503.246094 363.074219 488.117188 361.046875 474.511719 352.957031 C 471.960938 351.4375 469.28125 350.054688 466.949219 348.238281 C 461.976562 344.359375 456.203125 342.367188 450.316406 340.53125 C 438.585938 336.875 426.597656 334.433594 414.492188 332.402344 C 404.210938 330.675781 394.054688 328.214844 383.789062 326.390625 C 377.546875 325.28125 371.199219 324.765625 364.902344 323.960938 C 354.765625 322.660156 344.839844 324.757812 334.902344 326.058594 C 319.894531 328.027344 304.984375 330.769531 289.96875 332.675781 C 278.324219 334.152344 266.59375 335.03125 254.882812 335.84375 C 244.921875 336.535156 234.925781 336.65625 224.953125 337.199219 C 207.636719 338.144531 190.277344 339.105469 173.363281 343.230469 C 160.761719 346.304688 148.375 350.253906 135.816406 353.511719 C 120.089844 357.59375 104.316406 361.554688 88.132812 363.421875 C 79.085938 364.46875 70.007812 364.746094 61.117188 362.238281 C 58.421875 361.480469 55.773438 360.339844 53.304688 359 C 47.789062 356.007812 45.164062 349.589844 47.152344 343.308594 C 48.546875 338.890625 50.617188 334.691406 52.335938 330.519531 Z M 195.707031 117.507812 C 191.023438 118.050781 184.992188 117.335938 179.523438 120.851562 C 176.828125 122.589844 174.421875 124.332031 172.832031 127.101562 C 168.734375 134.230469 167.359375 142.023438 167.40625 150.121094 C 167.429688 154.5625 168.960938 158.519531 171.617188 162.085938 C 177.15625 169.515625 184.921875 172.074219 193.757812 172.613281 C 197.488281 172.839844 200.390625 170.832031 203.566406 169.621094 C 210.542969 166.96875 216.597656 163.019531 220.988281 156.714844 C 227.726562 147.042969 227.632812 134.335938 218.445312 125.714844 C 212.335938 119.988281 205.222656 117.28125 195.707031 117.507812 Z M 135.410156 236.113281 C 139.964844 236.328125 143.886719 234.699219 147.242188 231.765625 C 153.636719 226.171875 157.074219 219.015625 158.085938 210.625 C 159.183594 201.542969 156.253906 193.839844 150.234375 187.128906 C 147.011719 183.535156 142.582031 181.894531 138.496094 179.726562 C 130.308594 175.386719 121.269531 176.539062 115.085938 183.480469 C 107.496094 192 103.582031 201.722656 106.605469 213.585938 C 109.917969 226.574219 122.171875 235.421875 135.410156 236.113281 Z M 197.140625 204.675781 C 198.699219 205.566406 199.824219 206.277344 201.003906 206.871094 C 203.746094 208.25 206.523438 209.25 209.652344 207.992188 C 212.671875 206.777344 213.210938 204.5625 210.519531 202.753906 C 205.699219 199.523438 200.78125 196.414062 195.699219 193.625 C 192.132812 191.675781 188.554688 194.148438 188.730469 198.300781 C 189 204.65625 189.511719 211.003906 190.003906 217.347656 C 190.128906 218.980469 191.199219 220.117188 192.792969 220.425781 C 194.328125 220.722656 195.871094 220.328125 196.480469 218.738281 C 197.070312 217.199219 197.5625 215.511719 197.589844 213.878906 C 197.648438 210.925781 197.328125 207.964844 197.140625 204.675781 Z M 271.613281 157.828125 C 271.609375 157.898438 271.605469 157.96875 271.601562 158.039062 C 270.179688 158.039062 268.757812 157.96875 267.34375 158.058594 C 265 158.203125 263.199219 160.25 263.230469 162.59375 C 263.269531 165.210938 265.320312 166.851562 268.660156 167.023438 C 271.625 167.171875 274.589844 167.378906 277.546875 167.597656 C 282.203125 167.949219 286.847656 168.457031 291.511719 168.632812 C 292.902344 168.6875 294.429688 168.066406 295.707031 167.402344 C 297.503906 166.464844 297.765625 164.917969 296.863281 163.058594 C 295.679688 160.625 293.527344 159.585938 291.066406 159.355469 C 284.59375 158.75 278.101562 158.324219 271.613281 157.828125 Z M 256.152344 157.851562 C 257.207031 157.503906 258.328125 157.292969 259.296875 156.789062 C 261.546875 155.621094 263.835938 154.480469 265.902344 153.039062 C 271.105469 149.398438 276.207031 145.617188 281.320312 141.851562 C 283.371094 140.339844 283.75 138.648438 282.378906 136.777344 C 281.183594 135.148438 279.429688 134.03125 277.429688 134.828125 C 275.105469 135.753906 272.785156 136.914062 270.800781 138.417969 C 265.390625 142.503906 260.347656 147.066406 254.160156 150.066406 C 252.535156 150.855469 251.425781 152.394531 251.894531 154.441406 C 252.375 156.492188 253.925781 157.613281 256.152344 157.851562 Z M 108.664062 268.710938 C 108.851562 265.519531 107.703125 264.203125 105.507812 264.230469 C 104.542969 264.246094 103.5 264.363281 102.640625 264.757812 C 94.816406 268.320312 88.582031 273.84375 83.539062 280.730469 C 83.105469 281.320312 83.15625 282.808594 83.609375 283.367188 C 84.140625 284.019531 85.34375 284.28125 86.289062 284.375 C 86.902344 284.433594 87.632812 283.976562 88.214844 283.601562 C 93.839844 279.980469 99.511719 276.421875 105.019531 272.625 C 106.65625 271.488281 107.808594 269.652344 108.664062 268.710938 Z M 100.035156 255.699219 C 106.050781 256.078125 108.640625 254.742188 109.871094 251.191406 C 110.21875 250.191406 110.242188 248.597656 109.660156 247.902344 C 109.101562 247.226562 107.582031 247.210938 106.472656 247.167969 C 104.605469 247.09375 102.695312 247.476562 100.863281 247.222656 C 95.683594 246.507812 90.53125 245.898438 85.363281 247.238281 C 83.867188 247.628906 82.347656 248.125 82.253906 249.929688 C 82.164062 251.589844 83.449219 252.210938 84.855469 252.820312 C 90.210938 255.144531 95.925781 255.273438 100.035156 255.699219 Z M 100.035156 255.699219 " fill-opacity="1" fill-rule="nonzero"/></g><path fill="#ffffff" d="M 195.707031 117.507812 C 205.222656 117.28125 212.335938 119.988281 218.441406 125.714844 C 227.628906 134.335938 227.726562 147.042969 220.984375 156.714844 C 216.59375 163.019531 210.542969 166.96875 203.566406 169.621094 C 200.386719 170.832031 197.488281 172.839844 193.753906 172.613281 C 184.917969 172.074219 177.152344 169.515625 171.617188 162.085938 C 168.960938 158.519531 167.429688 154.5625 167.402344 150.121094 C 167.359375 142.023438 168.730469 134.230469 172.832031 127.101562 C 174.421875 124.335938 176.824219 122.589844 179.523438 120.851562 C 184.992188 117.332031 191.023438 118.050781 195.707031 117.507812 Z M 184.4375 143.585938 C 184.285156 146.714844 185.714844 149.148438 187.789062 151.320312 C 188.703125 152.277344 189.578125 153.269531 190.398438 154.308594 C 192.210938 156.609375 193.835938 158.621094 197.484375 158.144531 C 202.871094 157.441406 206.488281 154.398438 208.886719 150.113281 C 211.363281 145.695312 210.851562 140.789062 208.648438 136.257812 C 206.011719 130.832031 199.847656 128.40625 194.984375 130.816406 C 192.976562 131.8125 191 132.984375 189.253906 134.378906 C 186.347656 136.699219 184.277344 139.589844 184.4375 143.585938 Z M 184.4375 143.585938 " fill-opacity="1" fill-rule="nonzero"/><path fill="#ffffff" d="M 135.410156 236.113281 C 122.171875 235.421875 109.914062 226.574219 106.605469 213.582031 C 103.582031 201.722656 107.496094 191.996094 115.085938 183.476562 C 121.269531 176.539062 130.308594 175.382812 138.496094 179.726562 C 142.582031 181.894531 147.015625 183.535156 150.234375 187.125 C 156.253906 193.835938 159.183594 201.542969 158.085938 210.625 C 157.074219 219.015625 153.636719 226.171875 147.242188 231.761719 C 143.886719 234.699219 139.96875 236.328125 135.410156 236.113281 Z M 121.402344 203.355469 C 121.503906 204.050781 121.617188 205.175781 121.835938 206.285156 C 123.003906 212.183594 125.765625 216.964844 131.335938 219.769531 C 134.496094 221.359375 137.789062 220.746094 140.121094 218.011719 C 143.300781 214.289062 143.109375 209.632812 143.195312 205.214844 C 143.261719 201.777344 141.261719 198.839844 138.910156 196.453125 C 136.855469 194.367188 134.5625 192.320312 131.351562 192.1875 C 126.703125 192 121.386719 197.785156 121.402344 203.355469 Z M 121.402344 203.355469 " fill-opacity="1" fill-rule="nonzero"/><path fill="#ffffff" d="M 197.140625 204.675781 C 197.324219 207.964844 197.648438 210.925781 197.589844 213.878906 C 197.5625 215.511719 197.070312 217.199219 196.480469 218.738281 C 195.871094 220.328125 194.328125 220.722656 192.792969 220.425781 C 191.195312 220.117188 190.128906 218.980469 190.003906 217.347656 C 189.511719 211.003906 189 204.65625 188.730469 198.300781 C 188.550781 194.152344 192.132812 191.675781 195.699219 193.625 C 200.78125 196.414062 205.703125 199.523438 210.519531 202.753906 C 213.210938 204.5625 212.671875 206.777344 209.652344 207.992188 C 206.523438 209.25 203.746094 208.25 201.003906 206.871094 C 199.824219 206.277344 198.703125 205.566406 197.140625 204.675781 Z M 197.140625 204.675781 " fill-opacity="1" fill-rule="nonzero"/><path fill="#ffffff" d="M 271.613281 157.828125 C 278.101562 158.324219 284.59375 158.75 291.066406 159.355469 C 293.527344 159.585938 295.679688 160.628906 296.863281 163.058594 C 297.765625 164.917969 297.503906 166.46875 295.707031 167.402344 C 294.429688 168.070312 292.898438 168.6875 291.511719 168.636719 C 286.851562 168.457031 282.203125 167.949219 277.546875 167.601562 C 274.589844 167.378906 271.625 167.171875 268.660156 167.023438 C 265.320312 166.855469 263.269531 165.214844 263.230469 162.597656 C 263.199219 160.25 265 158.207031 267.34375 158.058594 C 268.753906 157.96875 270.179688 158.042969 271.601562 158.042969 C 271.605469 157.96875 271.609375 157.898438 271.613281 157.828125 Z M 271.613281 157.828125 " fill-opacity="1" fill-rule="nonzero"/><path fill="#ffffff" d="M 256.152344 157.851562 C 253.925781 157.613281 252.375 156.492188 251.902344 154.441406 C 251.429688 152.394531 252.539062 150.855469 254.167969 150.066406 C 260.351562 147.066406 265.398438 142.503906 270.804688 138.417969 C 272.792969 136.914062 275.113281 135.753906 277.433594 134.828125 C 279.4375 134.03125 281.1875 135.148438 282.382812 136.777344 C 283.753906 138.652344 283.375 140.339844 281.324219 141.851562 C 276.210938 145.617188 271.109375 149.398438 265.90625 153.039062 C 263.839844 154.484375 261.550781 155.625 259.304688 156.789062 C 258.328125 157.292969 257.207031 157.503906 256.152344 157.851562 Z M 256.152344 157.851562 " fill-opacity="1" fill-rule="nonzero"/><path fill="#ffffff" d="M 108.664062 268.710938 C 107.808594 269.652344 106.65625 271.488281 105.019531 272.621094 C 99.511719 276.421875 93.839844 279.980469 88.214844 283.601562 C 87.632812 283.976562 86.902344 284.433594 86.289062 284.375 C 85.34375 284.277344 84.140625 284.015625 83.609375 283.367188 C 83.15625 282.808594 83.105469 281.320312 83.539062 280.726562 C 88.582031 273.84375 94.816406 268.320312 102.640625 264.757812 C 103.5 264.363281 104.542969 264.242188 105.507812 264.230469 C 107.703125 264.203125 108.847656 265.519531 108.664062 268.710938 Z M 108.664062 268.710938 " fill-opacity="1" fill-rule="nonzero"/><path fill="#ffffff" d="M 100.035156 255.699219 C 95.925781 255.273438 90.207031 255.144531 84.855469 252.820312 C 83.449219 252.210938 82.164062 251.585938 82.253906 249.929688 C 82.347656 248.125 83.867188 247.628906 85.363281 247.238281 C 90.53125 245.898438 95.679688 246.507812 100.863281 247.222656 C 102.695312 247.476562 104.605469 247.09375 106.472656 247.167969 C 107.582031 247.210938 109.101562 247.226562 109.660156 247.902344 C 110.242188 248.597656 110.21875 250.191406 109.871094 251.191406 C 108.640625 254.742188 106.050781 256.082031 100.035156 255.699219 Z M 100.035156 255.699219 " fill-opacity="1" fill-rule="nonzero"/><path fill="#000000" d="M 184.4375 143.582031 C 184.277344 139.589844 186.347656 136.695312 189.25 134.378906 C 190.996094 132.980469 192.972656 131.808594 194.980469 130.8125 C 199.84375 128.402344 206.007812 130.832031 208.644531 136.257812 C 210.847656 140.789062 211.359375 145.695312 208.882812 150.109375 C 206.484375 154.394531 202.867188 157.441406 197.480469 158.144531 C 193.832031 158.617188 192.207031 156.609375 190.390625 154.308594 C 189.574219 153.269531 188.699219 152.273438 187.785156 151.320312 C 185.714844 149.148438 184.285156 146.714844 184.4375 143.582031 Z M 184.4375 143.582031 " fill-opacity="1" fill-rule="nonzero"/><path fill="#000000" d="M 121.402344 203.355469 C 121.390625 197.785156 126.707031 192 131.351562 192.1875 C 134.558594 192.320312 136.855469 194.367188 138.910156 196.453125 C 141.261719 198.839844 143.257812 201.777344 143.191406 205.214844 C 143.105469 209.632812 143.296875 214.289062 140.117188 218.011719 C 137.785156 220.746094 134.496094 221.359375 131.335938 219.769531 C 125.765625 216.964844 123.003906 212.183594 121.835938 206.285156 C 121.617188 205.175781 121.503906 204.050781 121.402344 203.355469 Z M 121.402344 203.355469 " fill-opacity="1" fill-rule="nonzero"/><path fill="#000000" d="M 218.820312 565.328125 C 213.605469 565.328125 210.132812 563.589844 206.65625 560.113281 L 137.148438 490.605469 C 130.199219 483.65625 130.199219 473.230469 137.148438 466.277344 L 206.65625 396.773438 C 213.605469 389.820312 224.035156 389.820312 230.984375 396.773438 C 237.933594 403.722656 237.933594 414.148438 230.984375 421.097656 L 173.640625 478.441406 L 230.984375 535.785156 C 237.933594 542.738281 237.933594 553.164062 230.984375 560.113281 C 227.507812 563.589844 224.035156 565.328125 218.820312 565.328125 Z M 218.820312 565.328125 " fill-opacity="1" fill-rule="nonzero"/><path fill="#000000" d="M 392.589844 565.328125 C 387.375 565.328125 383.898438 563.589844 380.425781 560.113281 C 373.472656 553.164062 373.472656 542.738281 380.425781 535.785156 L 437.765625 478.441406 L 380.425781 421.097656 C 373.472656 414.148438 373.472656 403.722656 380.425781 396.773438 C 387.375 389.820312 397.800781 389.820312 404.75 396.773438 L 474.257812 466.277344 C 481.210938 473.230469 481.210938 483.65625 474.257812 490.605469 L 404.75 560.113281 C 401.277344 563.589844 397.800781 565.328125 392.589844 565.328125 Z M 392.589844 565.328125 " fill-opacity="1" fill-rule="nonzero"/><path fill="#000000" d="M 270.949219 600.078125 C 269.214844 600.078125 267.476562 600.078125 265.738281 598.34375 C 257.050781 594.867188 251.835938 586.179688 255.3125 575.753906 L 324.820312 367.230469 C 328.292969 358.542969 336.980469 353.328125 347.410156 356.804688 C 356.097656 360.28125 361.308594 368.96875 357.835938 379.394531 L 288.328125 587.917969 C 284.851562 594.867188 277.902344 600.078125 270.949219 600.078125 Z M 270.949219 600.078125 " fill-opacity="1" fill-rule="nonzero"/></svg>