<svg id="visual" viewBox="0 0 900 600" width="900" height="600" xmlns="http://www.w3.org/2000/svg" xmlns:xlink="http://www.w3.org/1999/xlink" version="1.1"><rect x="0" y="0" width="900" height="600" fill="#ffffff"></rect><path d="M0 18L16.7 16.7C33.3 15.3 66.7 12.7 100 13C133.3 13.3 166.7 16.7 200 22.7C233.3 28.7 266.7 37.3 300 40.2C333.3 43 366.7 40 400 34.5C433.3 29 466.7 21 500 21.8C533.3 22.7 566.7 32.3 600 38.2C633.3 44 666.7 46 700 44.7C733.3 43.3 766.7 38.7 800 33.8C833.3 29 866.7 24 883.3 21.5L900 19L900 0L883.3 0C866.7 0 833.3 0 800 0C766.7 0 733.3 0 700 0C666.7 0 633.3 0 600 0C566.7 0 533.3 0 500 0C466.7 0 433.3 0 400 0C366.7 0 333.3 0 300 0C266.7 0 233.3 0 200 0C166.7 0 133.3 0 100 0C66.7 0 33.3 0 16.7 0L0 0Z" fill="#000000" stroke-linecap="round" stroke-linejoin="miter"></path></svg>