<svg id="visual" viewBox="0 0 900 600" width="900" height="600" xmlns="http://www.w3.org/2000/svg" xmlns:xlink="http://www.w3.org/1999/xlink" version="1.1"><rect x="0" y="0" width="900" height="600" fill="#000000"></rect><path d="M0 60L9.3 60.7C18.7 61.3 37.3 62.7 56.2 58.2C75 53.7 94 43.3 112.8 35.7C131.7 28 150.3 23 169 24C187.7 25 206.3 32 225 41C243.7 50 262.3 61 281.2 64.7C300 68.3 319 64.7 337.8 59.8C356.7 55 375.3 49 394 43.7C412.7 38.3 431.3 33.7 450 32.5C468.7 31.3 487.3 33.7 506.2 38.8C525 44 544 52 562.8 62C581.7 72 600.3 84 619 86C637.7 88 656.3 80 675 73.8C693.7 67.7 712.3 63.3 731.2 59.5C750 55.7 769 52.3 787.8 51.2C806.7 50 825.3 51 844 58.2C862.7 65.3 881.3 78.7 890.7 85.3L900 92L900 0L890.7 0C881.3 0 862.7 0 844 0C825.3 0 806.7 0 787.8 0C769 0 750 0 731.2 0C712.3 0 693.7 0 675 0C656.3 0 637.7 0 619 0C600.3 0 581.7 0 562.8 0C544 0 525 0 506.2 0C487.3 0 468.7 0 450 0C431.3 0 412.7 0 394 0C375.3 0 356.7 0 337.8 0C319 0 300 0 281.2 0C262.3 0 243.7 0 225 0C206.3 0 187.7 0 169 0C150.3 0 131.7 0 112.8 0C94 0 75 0 56.2 0C37.3 0 18.7 0 9.3 0L0 0Z" fill="#ffffff" stroke-linecap="round" stroke-linejoin="miter"></path></svg>