<svg width="103" height="43" viewBox="0 0 103 43" fill="none" xmlns="http://www.w3.org/2000/svg">
<mask id="path-1-outside-1_269_459" maskUnits="userSpaceOnUse" x="0" y="0" width="103" height="43" fill="black">
<rect fill="white" width="103" height="43"/>
<path d="M18.792 39.384C15.912 39.384 13.608 39.032 11.88 38.328C10.184 37.624 8.952 36.456 8.184 34.824C7.416 33.192 7.032 30.984 7.032 28.2L7.08 5.592H15.144L15.096 28.44C15.096 29.624 15.4 30.536 16.008 31.176C16.648 31.784 17.56 32.088 18.744 32.088H22.392V39.384H18.792ZM3.192 18.84V12.504H22.392V18.84H3.192ZM42.0525 39V31.224H40.6125V22.92C40.6125 21.704 40.3245 20.808 39.7485 20.232C39.2045 19.624 38.2925 19.32 37.0125 19.32C36.4045 19.32 35.5085 19.336 34.3245 19.368C33.1405 19.4 31.8925 19.448 30.5805 19.512C29.2685 19.576 28.0685 19.64 26.9805 19.704V12.408C27.7485 12.344 28.6605 12.28 29.7165 12.216C30.7725 12.152 31.8605 12.104 32.9805 12.072C34.1325 12.04 35.1885 12.024 36.1485 12.024C38.8685 12.024 41.1725 12.424 43.0605 13.224C44.9805 14.024 46.4365 15.224 47.4285 16.824C48.4525 18.424 48.9645 20.456 48.9645 22.92V39H42.0525ZM33.6525 39.672C31.7965 39.672 30.1485 39.336 28.7085 38.664C27.2685 37.992 26.1325 37.032 25.3005 35.784C24.5005 34.504 24.1005 32.984 24.1005 31.224C24.1005 29.24 24.6285 27.64 25.6845 26.424C26.7405 25.176 28.1965 24.264 30.0525 23.688C31.9085 23.112 34.0365 22.824 36.4365 22.824H41.5725V27.336H36.4365C35.2525 27.336 34.3405 27.64 33.7005 28.248C33.0605 28.824 32.7405 29.608 32.7405 30.6C32.7405 31.56 33.0605 32.344 33.7005 32.952C34.3405 33.528 35.2525 33.816 36.4365 33.816C37.2045 33.816 37.8765 33.688 38.4525 33.432C39.0605 33.144 39.5565 32.664 39.9405 31.992C40.3245 31.32 40.5485 30.392 40.6125 29.208L42.6285 31.128C42.4685 32.952 42.0205 34.504 41.2845 35.784C40.5805 37.032 39.5885 37.992 38.3085 38.664C37.0605 39.336 35.5085 39.672 33.6525 39.672ZM54.2258 39V3.96H62.9618V39H54.2258ZM51.2498 10.296V3.96H62.9618V10.296H51.2498ZM87.2603 39L79.4362 26.616H75.8842L86.2522 12.504H95.3723L85.5322 25.8V21.576L97.0042 39H87.2603ZM68.4442 39V3.96H77.1802V39H68.4442Z"/>
</mask>
<path d="M11.88 38.328L10.7299 41.0988L10.739 41.1026L10.7481 41.1063L11.88 38.328ZM8.184 34.824L5.46954 36.1014L8.184 34.824ZM7.032 28.2L4.032 28.1936V28.2H7.032ZM7.08 5.592V2.592H4.08636L4.08001 5.58563L7.08 5.592ZM15.144 5.592L18.144 5.5983L18.1503 2.592H15.144V5.592ZM15.096 28.44L12.096 28.4337V28.44H15.096ZM16.008 31.176L13.833 33.2422L13.886 33.298L13.9418 33.351L16.008 31.176ZM22.392 32.088H25.392V29.088H22.392V32.088ZM22.392 39.384V42.384H25.392V39.384H22.392ZM3.192 18.84H0.192V21.84H3.192V18.84ZM3.192 12.504V9.504H0.192V12.504H3.192ZM22.392 12.504H25.392V9.504H22.392V12.504ZM22.392 18.84V21.84H25.392V18.84H22.392ZM18.792 36.384C16.1114 36.384 14.2395 36.0499 13.0119 35.5497L10.7481 41.1063C12.9765 42.0141 15.7126 42.384 18.792 42.384V36.384ZM13.0301 35.5572C12.0093 35.1335 11.3425 34.4903 10.8985 33.5466L5.46954 36.1014C6.56148 38.4217 8.35867 40.1145 10.7299 41.0988L13.0301 35.5572ZM10.8985 33.5466C10.3929 32.4722 10.032 30.7588 10.032 28.2H4.032C4.032 31.2092 4.43912 33.9118 5.46954 36.1014L10.8985 33.5466ZM10.032 28.2064L10.08 5.59837L4.08001 5.58563L4.03201 28.1936L10.032 28.2064ZM7.08 8.592H15.144V2.592H7.08V8.592ZM12.144 5.5857L12.096 28.4337L18.096 28.4463L18.144 5.5983L12.144 5.5857ZM12.096 28.44C12.096 30.1246 12.5355 31.8765 13.833 33.2422L18.183 29.1097C18.2081 29.1362 18.1955 29.1398 18.17 29.0633C18.1405 28.9746 18.096 28.7813 18.096 28.44H12.096ZM13.9418 33.351C15.3075 34.6485 17.0594 35.088 18.744 35.088V29.088C18.4027 29.088 18.2094 29.0435 18.1207 29.014C18.0442 28.9885 18.0478 28.9759 18.0743 29.001L13.9418 33.351ZM18.744 35.088H22.392V29.088H18.744V35.088ZM19.392 32.088V39.384H25.392V32.088H19.392ZM22.392 36.384H18.792V42.384H22.392V36.384ZM6.192 18.84V12.504H0.192V18.84H6.192ZM3.192 15.504H22.392V9.504H3.192V15.504ZM19.392 12.504V18.84H25.392V12.504H19.392ZM22.392 15.84H3.192V21.84H22.392V15.84ZM42.0525 39H39.0525V42H42.0525V39ZM42.0525 31.224H45.0525V28.224H42.0525V31.224ZM40.6125 31.224H37.6125V34.224H40.6125V31.224ZM39.7485 20.232L37.5128 22.2324L37.5683 22.2944L37.6272 22.3533L39.7485 20.232ZM34.3245 19.368L34.4056 22.3669H34.4056L34.3245 19.368ZM30.5805 19.512L30.7267 22.5084L30.5805 19.512ZM26.9805 19.704H23.9805V22.8857L27.1567 22.6988L26.9805 19.704ZM26.9805 12.408L26.7314 9.41836L23.9805 9.6476V12.408H26.9805ZM29.7165 12.216L29.535 9.22149L29.7165 12.216ZM32.9805 12.072L32.8972 9.07315L32.8948 9.07322L32.9805 12.072ZM43.0605 13.224L41.8901 15.9863L41.8983 15.9898L41.9067 15.9932L43.0605 13.224ZM47.4285 16.824L44.8788 18.4048L44.8901 18.4231L44.9017 18.4412L47.4285 16.824ZM48.9645 39V42H51.9645V39H48.9645ZM25.3005 35.784L22.7565 37.374L22.7799 37.4114L22.8043 37.4481L25.3005 35.784ZM25.6845 26.424L27.9496 28.3911L27.9622 28.3765L27.9747 28.3618L25.6845 26.424ZM30.0525 23.688L30.9417 26.5532H30.9417L30.0525 23.688ZM41.5725 22.824H44.5725V19.824H41.5725V22.824ZM41.5725 27.336V30.336H44.5725V27.336H41.5725ZM33.7005 28.248L35.7074 30.4779L35.7374 30.4508L35.7668 30.423L33.7005 28.248ZM33.7005 32.952L31.6343 35.127L31.6636 35.1548L31.6936 35.1819L33.7005 32.952ZM38.4525 33.432L39.6709 36.1734L39.704 36.1587L39.7368 36.1432L38.4525 33.432ZM39.9405 31.992L37.3358 30.5036H37.3358L39.9405 31.992ZM40.6125 29.208L42.6815 27.0356L37.9682 22.5467L37.6169 29.0461L40.6125 29.208ZM42.6285 31.128L45.617 31.3902L45.7432 29.9515L44.6975 28.9556L42.6285 31.128ZM41.2845 35.784L38.6838 34.2886L38.6776 34.2993L38.6716 34.31L41.2845 35.784ZM38.3085 38.664L36.914 36.0078L36.9001 36.0151L36.8862 36.0226L38.3085 38.664ZM45.0525 39V31.224H39.0525V39H45.0525ZM42.0525 28.224H40.6125V34.224H42.0525V28.224ZM43.6125 31.224V22.92H37.6125V31.224H43.6125ZM43.6125 22.92C43.6125 21.2966 43.2336 19.4745 41.8698 18.1107L37.6272 22.3533C37.5293 22.2554 37.5195 22.1891 37.5404 22.254C37.5659 22.3333 37.6125 22.5376 37.6125 22.92H43.6125ZM41.9842 18.2316C40.615 16.7013 38.6666 16.32 37.0125 16.32V22.32C37.4302 22.32 37.6401 22.3715 37.7078 22.394C37.7574 22.4106 37.6464 22.3818 37.5128 22.2324L41.9842 18.2316ZM37.0125 16.32C36.3629 16.32 35.4343 16.3369 34.2434 16.3691L34.4056 22.3669C35.5827 22.3351 36.4461 22.32 37.0125 22.32V16.32ZM34.2435 16.3691C33.0355 16.4017 31.7657 16.4506 30.4343 16.5156L30.7267 22.5084C32.0193 22.4454 33.2455 22.3983 34.4056 22.3669L34.2435 16.3691ZM30.4343 16.5156C29.1143 16.58 27.9041 16.6445 26.8043 16.7092L27.1567 22.6988C28.2329 22.6355 29.4227 22.572 30.7267 22.5084L30.4343 16.5156ZM29.9805 19.704V12.408H23.9805V19.704H29.9805ZM27.2296 15.3976C27.9686 15.3361 28.8569 15.2736 29.898 15.2105L29.535 9.22149C28.4641 9.2864 27.5284 9.35194 26.7314 9.41836L27.2296 15.3976ZM29.898 15.2105C30.9203 15.1485 31.9763 15.1019 33.0662 15.0708L32.8948 9.07322C31.7447 9.10608 30.6247 9.15545 29.535 9.22149L29.898 15.2105ZM33.0638 15.0708C34.1933 15.0395 35.2211 15.024 36.1485 15.024V9.024C35.1559 9.024 34.0717 9.04053 32.8972 9.07315L33.0638 15.0708ZM36.1485 15.024C38.5908 15.024 40.4719 15.3853 41.8901 15.9863L44.2309 10.4617C41.8731 9.46266 39.1462 9.024 36.1485 9.024V15.024ZM41.9067 15.9932C43.3123 16.5789 44.2512 17.3925 44.8788 18.4048L49.9782 15.2432C48.6218 13.0554 46.6487 11.4691 44.2143 10.4548L41.9067 15.9932ZM44.9017 18.4412C45.5372 19.4342 45.9645 20.8614 45.9645 22.92H51.9645C51.9645 20.0506 51.3678 17.4138 49.9553 15.2068L44.9017 18.4412ZM45.9645 22.92V39H51.9645V22.92H45.9645ZM48.9645 36H42.0525V42H48.9645V36ZM33.6525 36.672C32.1617 36.672 30.9586 36.4034 29.9772 35.9454L27.4398 41.3825C29.3384 42.2686 31.4313 42.672 33.6525 42.672V36.672ZM29.9772 35.9454C29.0043 35.4915 28.3054 34.8831 27.7967 34.1199L22.8043 37.4481C23.9596 39.1809 25.5327 40.4925 27.4398 41.3825L29.9772 35.9454ZM27.8445 34.194C27.3891 33.4654 27.1005 32.5167 27.1005 31.224H21.1005C21.1005 33.4513 21.6119 35.5426 22.7565 37.374L27.8445 34.194ZM27.1005 31.224C27.1005 29.7886 27.4705 28.9428 27.9496 28.3911L23.4194 24.4569C21.7865 26.3372 21.1005 28.6914 21.1005 31.224H27.1005ZM27.9747 28.3618C28.5968 27.6266 29.5271 26.9922 30.9417 26.5532L29.1633 20.8228C26.8659 21.5358 24.8842 22.7254 23.3943 24.4862L27.9747 28.3618ZM30.9417 26.5532C32.4514 26.0847 34.2701 25.824 36.4365 25.824V19.824C33.8029 19.824 31.3656 20.1393 29.1633 20.8228L30.9417 26.5532ZM36.4365 25.824H41.5725V19.824H36.4365V25.824ZM38.5725 22.824V27.336H44.5725V22.824H38.5725ZM41.5725 24.336H36.4365V30.336H41.5725V24.336ZM36.4365 24.336C34.7519 24.336 33 24.7755 31.6343 26.073L35.7668 30.423C35.7403 30.4481 35.7367 30.4355 35.8132 30.41C35.9019 30.3805 36.0952 30.336 36.4365 30.336V24.336ZM31.6936 26.0181C30.3227 27.2519 29.7405 28.9002 29.7405 30.6H35.7405C35.7405 30.4271 35.7679 30.3776 35.758 30.4017C35.7536 30.4125 35.7448 30.4301 35.7314 30.4491C35.7252 30.4579 35.7194 30.465 35.7146 30.4704C35.7098 30.4757 35.7071 30.4781 35.7074 30.4779L31.6936 26.0181ZM29.7405 30.6C29.7405 32.3024 30.3425 33.8998 31.6343 35.127L35.7668 30.777C35.7506 30.7616 35.7473 30.7557 35.7501 30.7598C35.7532 30.7643 35.7564 30.7702 35.758 30.7743C35.7633 30.7872 35.7405 30.7429 35.7405 30.6H29.7405ZM31.6936 35.1819C33.0619 36.4134 34.791 36.816 36.4365 36.816V30.816C35.714 30.816 35.6191 30.6426 35.7074 30.7221L31.6936 35.1819ZM36.4365 36.816C37.5346 36.816 38.6371 36.6329 39.6709 36.1734L37.2341 30.6906C37.1159 30.7431 36.8744 30.816 36.4365 30.816V36.816ZM39.7368 36.1432C40.9801 35.5543 41.9039 34.6027 42.5452 33.4804L37.3358 30.5036C37.2675 30.6231 37.2158 30.6793 37.1942 30.7002C37.1753 30.7185 37.1687 30.7206 37.1682 30.7208L39.7368 36.1432ZM42.5452 33.4804C43.2518 32.244 43.5311 30.7951 43.6081 29.3699L37.6169 29.0461C37.5659 29.9889 37.3972 30.396 37.3358 30.5036L42.5452 33.4804ZM38.5435 31.3804L40.5595 33.3004L44.6975 28.9556L42.6815 27.0356L38.5435 31.3804ZM39.64 30.8658C39.5092 32.3571 39.1567 33.4661 38.6838 34.2886L43.8852 37.2794C44.8843 35.5419 45.4278 33.5469 45.617 31.3902L39.64 30.8658ZM38.6716 34.31C38.2541 35.0501 37.6874 35.6018 36.914 36.0078L39.703 41.3202C41.4897 40.3822 42.9069 39.0139 43.8974 37.258L38.6716 34.31ZM36.8862 36.0226C36.1897 36.3976 35.1606 36.672 33.6525 36.672V42.672C35.8564 42.672 37.9313 42.2744 39.7308 41.3054L36.8862 36.0226ZM54.2258 39H51.2258V42H54.2258V39ZM54.2258 3.96V0.959999H51.2258V3.96H54.2258ZM62.9618 3.96H65.9618V0.959999H62.9618V3.96ZM62.9618 39V42H65.9618V39H62.9618ZM51.2498 10.296H48.2498V13.296H51.2498V10.296ZM51.2498 3.96V0.959999H48.2498V3.96H51.2498ZM62.9618 3.96H65.9618V0.959999H62.9618V3.96ZM62.9618 10.296V13.296H65.9618V10.296H62.9618ZM57.2258 39V3.96H51.2258V39H57.2258ZM54.2258 6.96H62.9618V0.959999H54.2258V6.96ZM59.9618 3.96V39H65.9618V3.96H59.9618ZM62.9618 36H54.2258V42H62.9618V36ZM54.2498 10.296V3.96H48.2498V10.296H54.2498ZM51.2498 6.96H62.9618V0.959999H51.2498V6.96ZM59.9618 3.96V10.296H65.9618V3.96H59.9618ZM62.9618 7.296H51.2498V13.296H62.9618V7.296ZM87.2603 39L84.724 40.6023L85.607 42H87.2603V39ZM79.4362 26.616L81.9725 25.0137L81.0895 23.616H79.4362V26.616ZM75.8842 26.616L73.4666 24.8398L69.9575 29.616H75.8842V26.616ZM86.2523 12.504V9.504H84.7337L83.8346 10.7278L86.2523 12.504ZM95.3723 12.504L97.7837 14.2886L101.325 9.504H95.3723V12.504ZM85.5322 25.8H82.5322V34.8967L87.9437 27.5846L85.5322 25.8ZM85.5322 21.576L88.0379 19.9263L82.5322 11.5641V21.576H85.5322ZM97.0042 39V42H102.571L99.5099 37.3503L97.0042 39ZM68.4443 39H65.4442V42H68.4443V39ZM68.4443 3.96V0.959999H65.4442V3.96H68.4443ZM77.1803 3.96H80.1803V0.959999H77.1803V3.96ZM77.1803 39V42H80.1803V39H77.1803ZM89.7965 37.3977L81.9725 25.0137L76.9 28.2183L84.724 40.6023L89.7965 37.3977ZM79.4362 23.616H75.8842V29.616H79.4362V23.616ZM78.3019 28.3922L88.6699 14.2802L83.8346 10.7278L73.4666 24.8398L78.3019 28.3922ZM86.2523 15.504H95.3723V9.504H86.2523V15.504ZM92.9608 10.7194L83.1208 24.0154L87.9437 27.5846L97.7837 14.2886L92.9608 10.7194ZM88.5322 25.8V21.576H82.5322V25.8H88.5322ZM83.0266 23.2257L94.4986 40.6497L99.5099 37.3503L88.0379 19.9263L83.0266 23.2257ZM97.0042 36H87.2603V42H97.0042V36ZM71.4443 39V3.96H65.4442V39H71.4443ZM68.4443 6.96H77.1803V0.959999H68.4443V6.96ZM74.1803 3.96V39H80.1803V3.96H74.1803ZM77.1803 36H68.4443V42H77.1803V36Z" fill="black" mask="url(#path-1-outside-1_269_459)"/>
</svg>
